<?xml version="1.0" encoding="UTF-8" standalone="no"?>
<!-- Created with matplotlib (https://matplotlib.org/) -->

<svg
   xmlns:dc="http://purl.org/dc/elements/1.1/"
   xmlns:cc="http://creativecommons.org/ns#"
   xmlns:rdf="http://www.w3.org/1999/02/22-rdf-syntax-ns#"
   xmlns:svg="http://www.w3.org/2000/svg"
   xmlns="http://www.w3.org/2000/svg"
   xmlns:xlink="http://www.w3.org/1999/xlink"
   xmlns:sodipodi="http://sodipodi.sourceforge.net/DTD/sodipodi-0.dtd"
   xmlns:inkscape="http://www.inkscape.org/namespaces/inkscape"
   height="288pt"
   version="1.1"
   viewBox="0 0 432 288"
   width="432pt"
   id="svg201"
   sodipodi:docname="lixo.svg"
   inkscape:version="0.92.3 (2405546, 2018-03-11)">
  <sodipodi:namedview
     pagecolor="#ffffff"
     bordercolor="#666666"
     borderopacity="1"
     objecttolerance="10"
     gridtolerance="10"
     guidetolerance="10"
     inkscape:pageopacity="0"
     inkscape:pageshadow="2"
     inkscape:window-width="1024"
     inkscape:window-height="721"
     id="namedview203"
     showgrid="false"
     inkscape:zoom="0.61458333"
     inkscape:cx="186.79713"
     inkscape:cy="192"
     inkscape:window-x="0"
     inkscape:window-y="0"
     inkscape:window-maximized="1"
     inkscape:current-layer="svg201" />
  <metadata
     id="metadata205">
    <rdf:RDF>
      <cc:Work
         rdf:about="">
        <dc:format>image/svg+xml</dc:format>
        <dc:type
           rdf:resource="http://purl.org/dc/dcmitype/StillImage" />
      </cc:Work>
    </rdf:RDF>
  </metadata>
  <defs
     id="defs4">
    <style
       id="style2"
       type="text/css">
*{stroke-linecap:butt;stroke-linejoin:round;}
  </style>
  </defs>
  <g
     id="figure_1">
    <g
       id="patch_1">
      <path
         id="path6"
         style="fill:#f0f0f0;"
         d="M 0 288  L 432 288  L 432 0  L 0 0  z " />
    </g>
    <g
       id="axes_1">
      <g
         id="patch_2">
        <path
           id="path9"
           style="fill:#f0f0f0;"
           d="M 34.56 267.84  L 410.4 267.84  L 410.4 34.56  L 34.56 34.56  z " />
      </g>
      <g
         id="matplotlib.axis_1">
        <g
           id="xtick_1">
          <g
             id="line2d_1">
            <path
               id="path12"
               style="fill:none;stroke:#cbcbcb;"
               d="M 51.643636 267.84  L 51.643636 34.56  "
               clip-path="url(#pf17e203504)" />
          </g>
          <g
             id="line2d_2" />
          <g
             id="text_1">
            <!-- 0 -->
            <defs
               id="defs17">
              <path
                 id="DejaVuSans-48"
                 d="M 31.78125 66.40625  Q 24.171875 66.40625 20.328125 58.90625  Q 16.5 51.421875 16.5 36.375  Q 16.5 21.390625 20.328125 13.890625  Q 24.171875 6.390625 31.78125 6.390625  Q 39.453125 6.390625 43.28125 13.890625  Q 47.125 21.390625 47.125 36.375  Q 47.125 51.421875 43.28125 58.90625  Q 39.453125 66.40625 31.78125 66.40625  z M 31.78125 74.21875  Q 44.046875 74.21875 50.515625 64.515625  Q 56.984375 54.828125 56.984375 36.375  Q 56.984375 17.96875 50.515625 8.265625  Q 44.046875 -1.421875 31.78125 -1.421875  Q 19.53125 -1.421875 13.0625 8.265625  Q 6.59375 17.96875 6.59375 36.375  Q 6.59375 54.828125 13.0625 64.515625  Q 19.53125 74.21875 31.78125 74.21875  z " />
            </defs>
            <g
               id="g21"
               transform="translate(47.189886 281.977813)scale(0.14 -0.14)">
              <use
                 id="use19"
                 xlink:href="#DejaVuSans-48" />
            </g>
          </g>
        </g>
        <g
           id="xtick_2">
          <g
             id="line2d_3">
            <path
               id="path25"
               style="fill:none;stroke:#cbcbcb;"
               d="M 119.978182 267.84  L 119.978182 34.56  "
               clip-path="url(#pf17e203504)" />
          </g>
          <g
             id="line2d_4" />
          <g
             id="text_2">
            <!-- 2 -->
            <defs
               id="defs30">
              <path
                 id="DejaVuSans-50"
                 d="M 19.1875 8.296875  L 53.609375 8.296875  L 53.609375 0  L 7.328125 0  L 7.328125 8.296875  Q 12.9375 14.109375 22.625 23.890625  Q 32.328125 33.6875 34.8125 36.53125  Q 39.546875 41.84375 41.421875 45.53125  Q 43.3125 49.21875 43.3125 52.78125  Q 43.3125 58.59375 39.234375 62.25  Q 35.15625 65.921875 28.609375 65.921875  Q 23.96875 65.921875 18.8125 64.3125  Q 13.671875 62.703125 7.8125 59.421875  L 7.8125 69.390625  Q 13.765625 71.78125 18.9375 73  Q 24.125 74.21875 28.421875 74.21875  Q 39.75 74.21875 46.484375 68.546875  Q 53.21875 62.890625 53.21875 53.421875  Q 53.21875 48.921875 51.53125 44.890625  Q 49.859375 40.875 45.40625 35.40625  Q 44.1875 33.984375 37.640625 27.21875  Q 31.109375 20.453125 19.1875 8.296875  z " />
            </defs>
            <g
               id="g34"
               transform="translate(115.524432 281.977813)scale(0.14 -0.14)">
              <use
                 id="use32"
                 xlink:href="#DejaVuSans-50" />
            </g>
          </g>
        </g>
        <g
           id="xtick_3">
          <g
             id="line2d_5">
            <path
               id="path38"
               style="fill:none;stroke:#cbcbcb;"
               d="M 188.312727 267.84  L 188.312727 34.56  "
               clip-path="url(#pf17e203504)" />
          </g>
          <g
             id="line2d_6" />
          <g
             id="text_3">
            <!-- 4 -->
            <defs
               id="defs43">
              <path
                 id="DejaVuSans-52"
                 d="M 37.796875 64.3125  L 12.890625 25.390625  L 37.796875 25.390625  z M 35.203125 72.90625  L 47.609375 72.90625  L 47.609375 25.390625  L 58.015625 25.390625  L 58.015625 17.1875  L 47.609375 17.1875  L 47.609375 0  L 37.796875 0  L 37.796875 17.1875  L 4.890625 17.1875  L 4.890625 26.703125  z " />
            </defs>
            <g
               id="g47"
               transform="translate(183.858977 281.977813)scale(0.14 -0.14)">
              <use
                 id="use45"
                 xlink:href="#DejaVuSans-52" />
            </g>
          </g>
        </g>
        <g
           id="xtick_4">
          <g
             id="line2d_7">
            <path
               id="path51"
               style="fill:none;stroke:#cbcbcb;"
               d="M 256.647273 267.84  L 256.647273 34.56  "
               clip-path="url(#pf17e203504)" />
          </g>
          <g
             id="line2d_8" />
          <g
             id="text_4">
            <!-- 6 -->
            <defs
               id="defs56">
              <path
                 id="DejaVuSans-54"
                 d="M 33.015625 40.375  Q 26.375 40.375 22.484375 35.828125  Q 18.609375 31.296875 18.609375 23.390625  Q 18.609375 15.53125 22.484375 10.953125  Q 26.375 6.390625 33.015625 6.390625  Q 39.65625 6.390625 43.53125 10.953125  Q 47.40625 15.53125 47.40625 23.390625  Q 47.40625 31.296875 43.53125 35.828125  Q 39.65625 40.375 33.015625 40.375  z M 52.59375 71.296875  L 52.59375 62.3125  Q 48.875 64.0625 45.09375 64.984375  Q 41.3125 65.921875 37.59375 65.921875  Q 27.828125 65.921875 22.671875 59.328125  Q 17.53125 52.734375 16.796875 39.40625  Q 19.671875 43.65625 24.015625 45.921875  Q 28.375 48.1875 33.59375 48.1875  Q 44.578125 48.1875 50.953125 41.515625  Q 57.328125 34.859375 57.328125 23.390625  Q 57.328125 12.15625 50.6875 5.359375  Q 44.046875 -1.421875 33.015625 -1.421875  Q 20.359375 -1.421875 13.671875 8.265625  Q 6.984375 17.96875 6.984375 36.375  Q 6.984375 53.65625 15.1875 63.9375  Q 23.390625 74.21875 37.203125 74.21875  Q 40.921875 74.21875 44.703125 73.484375  Q 48.484375 72.75 52.59375 71.296875  z " />
            </defs>
            <g
               id="g60"
               transform="translate(252.193523 281.977813)scale(0.14 -0.14)">
              <use
                 id="use58"
                 xlink:href="#DejaVuSans-54" />
            </g>
          </g>
        </g>
        <g
           id="xtick_5">
          <g
             id="line2d_9">
            <path
               id="path64"
               style="fill:none;stroke:#cbcbcb;"
               d="M 324.981818 267.84  L 324.981818 34.56  "
               clip-path="url(#pf17e203504)" />
          </g>
          <g
             id="line2d_10" />
          <g
             id="text_5">
            <!-- 8 -->
            <defs
               id="defs69">
              <path
                 id="DejaVuSans-56"
                 d="M 31.78125 34.625  Q 24.75 34.625 20.71875 30.859375  Q 16.703125 27.09375 16.703125 20.515625  Q 16.703125 13.921875 20.71875 10.15625  Q 24.75 6.390625 31.78125 6.390625  Q 38.8125 6.390625 42.859375 10.171875  Q 46.921875 13.96875 46.921875 20.515625  Q 46.921875 27.09375 42.890625 30.859375  Q 38.875 34.625 31.78125 34.625  z M 21.921875 38.8125  Q 15.578125 40.375 12.03125 44.71875  Q 8.5 49.078125 8.5 55.328125  Q 8.5 64.0625 14.71875 69.140625  Q 20.953125 74.21875 31.78125 74.21875  Q 42.671875 74.21875 48.875 69.140625  Q 55.078125 64.0625 55.078125 55.328125  Q 55.078125 49.078125 51.53125 44.71875  Q 48 40.375 41.703125 38.8125  Q 48.828125 37.15625 52.796875 32.3125  Q 56.78125 27.484375 56.78125 20.515625  Q 56.78125 9.90625 50.3125 4.234375  Q 43.84375 -1.421875 31.78125 -1.421875  Q 19.734375 -1.421875 13.25 4.234375  Q 6.78125 9.90625 6.78125 20.515625  Q 6.78125 27.484375 10.78125 32.3125  Q 14.796875 37.15625 21.921875 38.8125  z M 18.3125 54.390625  Q 18.3125 48.734375 21.84375 45.5625  Q 25.390625 42.390625 31.78125 42.390625  Q 38.140625 42.390625 41.71875 45.5625  Q 45.3125 48.734375 45.3125 54.390625  Q 45.3125 60.0625 41.71875 63.234375  Q 38.140625 66.40625 31.78125 66.40625  Q 25.390625 66.40625 21.84375 63.234375  Q 18.3125 60.0625 18.3125 54.390625  z " />
            </defs>
            <g
               id="g73"
               transform="translate(320.528068 281.977813)scale(0.14 -0.14)">
              <use
                 id="use71"
                 xlink:href="#DejaVuSans-56" />
            </g>
          </g>
        </g>
        <g
           id="xtick_6">
          <g
             id="line2d_11">
            <path
               id="path77"
               style="fill:none;stroke:#cbcbcb;"
               d="M 393.316364 267.84  L 393.316364 34.56  "
               clip-path="url(#pf17e203504)" />
          </g>
          <g
             id="line2d_12" />
          <g
             id="text_6">
            <!-- 10 -->
            <defs
               id="defs82">
              <path
                 id="DejaVuSans-49"
                 d="M 12.40625 8.296875  L 28.515625 8.296875  L 28.515625 63.921875  L 10.984375 60.40625  L 10.984375 69.390625  L 28.421875 72.90625  L 38.28125 72.90625  L 38.28125 8.296875  L 54.390625 8.296875  L 54.390625 0  L 12.40625 0  z " />
            </defs>
            <g
               id="g88"
               transform="translate(384.408864 281.977813)scale(0.14 -0.14)">
              <use
                 id="use84"
                 xlink:href="#DejaVuSans-49" />
              <use
                 id="use86"
                 xlink:href="#DejaVuSans-48"
                 x="63.623047" />
            </g>
          </g>
        </g>
      </g>
      <g
         id="matplotlib.axis_2">
        <g
           id="ytick_1">
          <g
             id="line2d_13">
            <path
               id="path93"
               style="fill:none;stroke:#cbcbcb;"
               d="M 34.56 252.187013  L 410.4 252.187013  "
               clip-path="url(#pf17e203504)" />
          </g>
          <g
             id="line2d_14" />
          <g
             id="text_7">
            <!-- &#8722;2.0 -->
            <defs
               id="defs99">
              <path
                 id="DejaVuSans-8722"
                 d="M 10.59375 35.5  L 73.1875 35.5  L 73.1875 27.203125  L 10.59375 27.203125  z " />
              <path
                 id="DejaVuSans-46"
                 d="M 10.6875 12.40625  L 21 12.40625  L 21 0  L 10.6875 0  z " />
            </defs>
            <g
               id="g109"
               transform="translate(-2.935938 257.505919)scale(0.14 -0.14)">
              <use
                 id="use101"
                 xlink:href="#DejaVuSans-8722" />
              <use
                 id="use103"
                 xlink:href="#DejaVuSans-50"
                 x="83.789062" />
              <use
                 id="use105"
                 xlink:href="#DejaVuSans-46"
                 x="147.412109" />
              <use
                 id="use107"
                 xlink:href="#DejaVuSans-48"
                 x="179.199219" />
            </g>
          </g>
        </g>
        <g
           id="ytick_2">
          <g
             id="line2d_15">
            <path
               id="path113"
               style="fill:none;stroke:#cbcbcb;"
               d="M 34.56 201.693506  L 410.4 201.693506  "
               clip-path="url(#pf17e203504)" />
          </g>
          <g
             id="line2d_16" />
          <g
             id="text_8">
            <!-- &#8722;1.5 -->
            <defs
               id="defs118">
              <path
                 id="DejaVuSans-53"
                 d="M 10.796875 72.90625  L 49.515625 72.90625  L 49.515625 64.59375  L 19.828125 64.59375  L 19.828125 46.734375  Q 21.96875 47.46875 24.109375 47.828125  Q 26.265625 48.1875 28.421875 48.1875  Q 40.625 48.1875 47.75 41.5  Q 54.890625 34.8125 54.890625 23.390625  Q 54.890625 11.625 47.5625 5.09375  Q 40.234375 -1.421875 26.90625 -1.421875  Q 22.3125 -1.421875 17.546875 -0.640625  Q 12.796875 0.140625 7.71875 1.703125  L 7.71875 11.625  Q 12.109375 9.234375 16.796875 8.0625  Q 21.484375 6.890625 26.703125 6.890625  Q 35.15625 6.890625 40.078125 11.328125  Q 45.015625 15.765625 45.015625 23.390625  Q 45.015625 31 40.078125 35.4375  Q 35.15625 39.890625 26.703125 39.890625  Q 22.75 39.890625 18.8125 39.015625  Q 14.890625 38.140625 10.796875 36.28125  z " />
            </defs>
            <g
               id="g128"
               transform="translate(-2.935938 207.012413)scale(0.14 -0.14)">
              <use
                 id="use120"
                 xlink:href="#DejaVuSans-8722" />
              <use
                 id="use122"
                 xlink:href="#DejaVuSans-49"
                 x="83.789062" />
              <use
                 id="use124"
                 xlink:href="#DejaVuSans-46"
                 x="147.412109" />
              <use
                 id="use126"
                 xlink:href="#DejaVuSans-53"
                 x="179.199219" />
            </g>
          </g>
        </g>
        <g
           id="ytick_3">
          <g
             id="line2d_17">
            <path
               id="path132"
               style="fill:none;stroke:#cbcbcb;"
               d="M 34.56 151.2  L 410.4 151.2  "
               clip-path="url(#pf17e203504)" />
          </g>
          <g
             id="line2d_18" />
          <g
             id="text_9">
            <!-- &#8722;1.0 -->
            <g
               id="g144"
               transform="translate(-2.935938 156.518906)scale(0.14 -0.14)">
              <use
                 id="use136"
                 xlink:href="#DejaVuSans-8722" />
              <use
                 id="use138"
                 xlink:href="#DejaVuSans-49"
                 x="83.789062" />
              <use
                 id="use140"
                 xlink:href="#DejaVuSans-46"
                 x="147.412109" />
              <use
                 id="use142"
                 xlink:href="#DejaVuSans-48"
                 x="179.199219" />
            </g>
          </g>
        </g>
        <g
           id="ytick_4">
          <g
             id="line2d_19">
            <path
               id="path148"
               style="fill:none;stroke:#cbcbcb;"
               d="M 34.56 100.706494  L 410.4 100.706494  "
               clip-path="url(#pf17e203504)" />
          </g>
          <g
             id="line2d_20" />
          <g
             id="text_10">
            <!-- &#8722;0.5 -->
            <g
               id="g160"
               transform="translate(-2.935938 106.0254)scale(0.14 -0.14)">
              <use
                 id="use152"
                 xlink:href="#DejaVuSans-8722" />
              <use
                 id="use154"
                 xlink:href="#DejaVuSans-48"
                 x="83.789062" />
              <use
                 id="use156"
                 xlink:href="#DejaVuSans-46"
                 x="147.412109" />
              <use
                 id="use158"
                 xlink:href="#DejaVuSans-53"
                 x="179.199219" />
            </g>
          </g>
        </g>
        <g
           id="ytick_5">
          <g
             id="line2d_21">
            <path
               id="path164"
               style="fill:none;stroke:#cbcbcb;"
               d="M 34.56 50.212987  L 410.4 50.212987  "
               clip-path="url(#pf17e203504)" />
          </g>
          <g
             id="line2d_22" />
          <g
             id="text_11">
            <!-- 0.0 -->
            <g
               id="g174"
               transform="translate(8.795625 55.531893)scale(0.14 -0.14)">
              <use
                 id="use168"
                 xlink:href="#DejaVuSans-48" />
              <use
                 id="use170"
                 xlink:href="#DejaVuSans-46"
                 x="63.623047" />
              <use
                 id="use172"
                 xlink:href="#DejaVuSans-48"
                 x="95.410156" />
            </g>
          </g>
        </g>
      </g>
      <g
         id="line2d_23">
        <path
           id="path179"
           style="fill:none;stroke:#008fd5;stroke-width:4;"
           d="M 51.643636 257.236364  L 56.794481 246.768006  L 61.945327 236.967419  L 67.096172 227.813844  L 72.247017 219.286519  L 77.397862 211.364687  L 82.548707 204.027586  L 87.699552 197.254457  L 91.133449 193.042104  L 94.567346 189.065027  L 98.001243 185.317077  L 101.435139 181.792101  L 104.869036 178.483949  L 108.302933 175.386469  L 111.73683 172.493511  L 115.170726 169.798923  L 118.604623 167.296555  L 122.03852 164.980256  L 125.472417 162.843874  L 130.623262 159.963191  L 135.774107 157.452723  L 140.924952 155.29171  L 146.075797 153.459393  L 151.226642 151.935011  L 156.377487 150.697805  L 161.528333 149.727016  L 166.679178 149.001883  L 171.830023 148.501647  L 176.980868 148.205548  L 182.131713 148.092827  L 188.999507 148.191904  L 195.8673 148.530872  L 204.452042 149.216961  L 214.753732 150.298227  L 242.224906 153.339479  L 250.809648 153.973669  L 257.677442 154.257277  L 264.545235 154.288693  L 269.69608 154.117153  L 274.846926 153.755315  L 279.997771 153.18242  L 285.148616 152.377708  L 290.299461 151.32042  L 295.450306 149.989795  L 300.601151 148.365075  L 305.751996 146.425499  L 310.902841 144.150308  L 316.053687 141.518741  L 319.487583 139.556126  L 322.92148 137.419744  L 326.355377 135.103445  L 329.789274 132.601077  L 333.22317 129.906489  L 336.657067 127.013531  L 340.090964 123.916051  L 343.524861 120.607899  L 346.958757 117.082923  L 350.392654 113.334973  L 353.826551 109.357896  L 357.260448 105.145543  L 360.694344 100.691762  L 364.128241 95.990403  L 367.562138 91.035313  L 372.712983 83.113481  L 377.863828 74.586156  L 383.014673 65.432581  L 388.165519 55.631994  L 393.316364 45.163636  L 393.316364 45.163636  "
           clip-path="url(#pf17e203504)" />
      </g>
      <g
         id="patch_3">
        <path
           id="path182"
           style="fill:none;stroke:#f0f0f0;stroke-linecap:square;stroke-linejoin:miter;stroke-width:3;"
           d="M 34.56 267.84  L 34.56 34.56  " />
      </g>
      <g
         id="patch_4">
        <path
           id="path185"
           style="fill:none;stroke:#f0f0f0;stroke-linecap:square;stroke-linejoin:miter;stroke-width:3;"
           d="M 410.4 267.84  L 410.4 34.56  " />
      </g>
      <g
         id="patch_5">
        <path
           id="path188"
           style="fill:none;stroke:#f0f0f0;stroke-linecap:square;stroke-linejoin:miter;stroke-width:3;"
           d="M 34.56 267.84  L 410.4 267.84  " />
      </g>
      <g
         id="patch_6">
        <path
           id="path191"
           style="fill:none;stroke:#f0f0f0;stroke-linecap:square;stroke-linejoin:miter;stroke-width:3;"
           d="M 34.56 34.56  L 410.4 34.56  " />
      </g>
    </g>
  </g>
  <defs
     id="defs199">
    <clipPath
       id="pf17e203504">
      <rect
         id="rect196"
         y="34.56"
         x="34.56"
         width="375.84"
         height="233.28" />
    </clipPath>
  </defs>
  <g
     id="g1193"
     transform="translate(2.440678,-85.423729)"
     style="stroke-linecap:butt;stroke-linejoin:round;fill:#ff0000">
    <g
       word-spacing="normal"
       letter-spacing="normal"
       font-size-adjust="none"
       font-stretch="normal"
       font-weight="normal"
       font-variant="normal"
       font-style="normal"
       stroke-miterlimit="10.433"
       xml:space="preserve"
       transform="matrix(0.41142857,0,0,-0.41142857,-72,324)"
       id="content"
       style="font-style:normal;font-variant:normal;font-weight:normal;font-stretch:normal;letter-spacing:normal;word-spacing:normal;text-anchor:start;fill:#ff0000;fill-opacity:1;fill-rule:evenodd;stroke:#000000;stroke-linecap:butt;stroke-linejoin:round;stroke-miterlimit:10.43299961;stroke-dasharray:none;stroke-dashoffset:0;stroke-opacity:1"><path
         id="path1146"
         d="m 474.72,425.98 h 5.63 c -1.64,-7.38 -2.1,-9.52 -2.1,-12.85 0,-0.75 0,-2.09 0.41,-3.79 0.5,-2.19 1.05,-2.49 1.8,-2.49 0.98,0 2.03,0.89 2.03,1.89 0,0.3 0,0.41 -0.3,1.1 -1.44,3.59 -1.44,6.82 -1.44,8.21 0,2.65 0.35,5.35 0.89,7.93 h 5.69 c 0.64,0 2.44,0 2.44,1.7 0,1.19 -1.05,1.19 -2,1.19 h -16.69 c -1.09,0 -2.98,0 -5.17,-2.35 -1.75,-1.93 -3.05,-4.23 -3.05,-4.48 0,-0.05 0,-0.49 0.6,-0.49 0.4,0 0.5,0.19 0.79,0.6 2.46,3.83 5.35,3.83 6.33,3.83 h 2.85 c -1.6,-6.02 -4.29,-12.05 -6.38,-16.58 -0.41,-0.75 -0.41,-0.86 -0.41,-1.2 0,-0.96 0.8,-1.35 1.46,-1.35 1.5,0 1.89,1.39 2.48,3.24 0.71,2.29 0.71,2.39 1.35,4.89 z"
         inkscape:connector-curvature="0"
         style="fill:#ff0000;stroke-width:0;stroke-linecap:butt;stroke-linejoin:round" /><path
         id="path1148"
         d="m 509.36,431.86 h -1.19 c -0.1,-0.76 -0.46,-2.82 -0.91,-3.17 -0.26,-0.2 -2.95,-0.2 -3.44,-0.2 h -6.42 c 3.66,3.23 4.88,4.2 6.97,5.84 2.58,2.06 4.99,4.22 4.99,7.53 0,4.22 -3.69,6.8 -8.16,6.8 -4.31,0 -7.25,-3.03 -7.25,-6.23 0,-1.79 1.5,-1.96 1.86,-1.96 0.83,0 1.84,0.6 1.84,1.85 0,0.62 -0.25,1.84 -2.06,1.84 1.08,2.47 3.45,3.23 5.09,3.23 3.49,0 5.3,-2.7 5.3,-5.53 0,-3.03 -2.16,-5.43 -3.28,-6.68 l -8.39,-8.3 c -0.36,-0.31 -0.36,-0.39 -0.36,-1.36 h 14.36 z"
         inkscape:connector-curvature="0"
         style="fill:#ff0000;stroke-width:0;stroke-linecap:butt;stroke-linejoin:round" /><polyline
         id="polyline1150"
         points="462,385 514.56,385 514.56,387.04 462,387.04 "
         style="fill:#ff0000;fill-rule:nonzero;stroke-width:0;stroke-linecap:butt;stroke-linejoin:round" /><path
         id="path1152"
         d="m 481.9,355.95 v 1.18 c 0,12.61 6.17,14.41 8.72,14.41 1.18,0 3.28,-0.3 4.37,-2 -0.73,0 -2.73,0 -2.73,-2.24 0,-1.54 1.2,-2.29 2.29,-2.29 0.8,0 2.29,0.45 2.29,2.39 0,3 -2.19,5.39 -6.32,5.39 -6.39,0 -13.11,-6.44 -13.11,-17.44 0,-13.31 5.79,-16.84 10.41,-16.84 5.53,0 10.27,4.69 10.27,11.25 0,6.33 -4.44,11.12 -9.97,11.12 l -0.05,-1.15 c 0.8,0 3.09,0 4.64,-3.1 0.89,-1.83 0.89,-4.37 0.89,-6.81 0,-2.39 0,-4.89 -0.84,-6.69 -1.5,-2.98 -3.78,-3.23 -4.94,-3.23 v 0 c -3.14,0 -4.62,2.98 -4.92,3.73 -0.91,2.35 -0.91,6.33 -0.91,7.24 0,3.87 1.6,8.86 6.08,8.86 l 0.05,1.15 c -3.38,0 -5.22,-2.54 -6.22,-4.93 z"
         inkscape:connector-curvature="0"
         style="fill:#ff0000;stroke-width:0;stroke-linecap:butt;stroke-linejoin:round" /><path
         id="path1154"
         d="m 568.11,389.98 h 0.14 0.15 0.14 l 0.07,0.01 h 0.08 l 0.07,0.01 0.07,0.01 0.07,0.01 0.07,0.01 0.07,0.01 0.06,0.02 0.07,0.02 0.06,0.02 0.06,0.02 0.06,0.03 0.06,0.03 0.05,0.04 0.05,0.04 0.05,0.04 0.04,0.04 0.04,0.05 0.02,0.03 0.02,0.03 0.01,0.02 0.02,0.03 0.01,0.04 0.02,0.03 0.01,0.03 0.01,0.04 0.01,0.03 0.01,0.04 v 0.04 l 0.01,0.04 v 0.04 l 0.01,0.04 v 0.05 0.04 c 0,1 -0.95,1 -1.64,1 h -29.84 c -0.71,0 -1.64,0 -1.64,-1 0,-0.98 0.93,-0.98 1.68,-0.98 z"
         inkscape:connector-curvature="0"
         style="fill:#ff0000;stroke-width:0;stroke-linecap:butt;stroke-linejoin:round" /><path
         id="path1156"
         d="m 568.16,380.3 0.07,0.01 h 0.06 0.14 0.14 l 0.07,0.01 h 0.07 l 0.07,0.01 0.07,0.01 0.06,0.01 0.07,0.01 0.07,0.01 0.06,0.02 0.07,0.02 0.06,0.02 0.06,0.02 0.06,0.03 0.05,0.03 0.05,0.04 0.05,0.04 0.05,0.04 0.04,0.05 0.02,0.02 0.02,0.03 0.02,0.02 0.02,0.03 0.01,0.03 0.02,0.03 0.01,0.03 0.02,0.04 0.01,0.03 0.01,0.03 0.01,0.04 0.01,0.04 v 0.04 l 0.01,0.04 v 0.04 l 0.01,0.04 v 0.05 0.04 c 0,1 -0.95,1 -1.69,1 h -29.75 c -0.75,0 -1.68,0 -1.68,-1 0,-1 0.93,-1 1.64,-1 z"
         inkscape:connector-curvature="0"
         style="fill:#ff0000;stroke-width:0;stroke-linecap:butt;stroke-linejoin:round" /><path
         id="path1158"
         d="m 612.65,408.26 -7.17,-0.55 v -1.55 c 3.48,0 3.89,-0.34 3.89,-2.79 v -25.91 c 0,-2.23 -0.55,-2.23 -3.89,-2.23 v -1.55 c 1.64,0.05 4.28,0.16 5.53,0.16 1.25,0 3.69,-0.11 5.53,-0.16 v 1.55 c -3.34,0 -3.89,0 -3.89,2.23 z"
         inkscape:connector-curvature="0"
         style="fill:#ff0000;stroke-width:0;stroke-linecap:butt;stroke-linejoin:round" /><path
         id="path1160"
         d="m 626.45,395.7 -6.97,-0.55 v -1.55 c 3.23,0 3.68,-0.3 3.68,-2.73 v -13.41 c 0,-2.23 -0.54,-2.23 -3.89,-2.23 v -1.55 c 1.6,0.05 4.28,0.16 5.49,0.16 1.75,0 3.48,-0.11 5.19,-0.16 v 1.55 c -3.3,0 -3.5,0.25 -3.5,2.18 z"
         inkscape:connector-curvature="0"
         style="fill:#ff0000;stroke-width:0;stroke-linecap:butt;stroke-linejoin:round" /><path
         id="path1162"
         d="m 626.65,404.37 -0.01,0.14 -0.01,0.15 -0.01,0.14 -0.03,0.14 -0.03,0.13 -0.04,0.13 -0.04,0.13 -0.05,0.12 -0.05,0.12 -0.06,0.12 -0.07,0.11 -0.07,0.1 -0.08,0.11 -0.08,0.09 -0.08,0.1 -0.09,0.09 -0.09,0.08 -0.1,0.08 -0.1,0.07 -0.11,0.07 -0.1,0.07 -0.11,0.06 -0.12,0.05 -0.11,0.05 -0.12,0.04 -0.12,0.04 -0.12,0.03 -0.13,0.03 -0.13,0.02 -0.12,0.02 h -0.13 l -0.13,0.01 c -1.55,0 -2.64,-1.35 -2.64,-2.64 0,-1.35 1.09,-2.64 2.64,-2.64 1.39,0 2.64,1.04 2.64,2.64 z"
         inkscape:connector-curvature="0"
         style="fill:#ff0000;stroke-width:0;stroke-linecap:butt;stroke-linejoin:round" /><path
         id="path1164"
         d="m 636.91,390.82 v -13.36 c 0,-2.23 -0.54,-2.23 -3.89,-2.23 v -1.55 c 1.75,0.05 4.28,0.16 5.63,0.16 1.3,0 3.89,-0.11 5.58,-0.16 v 1.55 c -3.33,0 -3.88,0 -3.88,2.23 v 9.17 c 0,5.19 3.53,7.97 6.72,7.97 3.14,0 3.69,-2.69 3.69,-5.53 v -11.61 c 0,-2.23 -0.55,-2.23 -3.89,-2.23 v -1.55 c 1.75,0.05 4.29,0.16 5.64,0.16 1.29,0 3.87,-0.11 5.58,-0.16 v 1.55 c -3.35,0 -3.89,0 -3.89,2.23 v 9.17 c 0,5.19 3.54,7.97 6.73,7.97 3.14,0 3.69,-2.69 3.69,-5.53 v -11.61 c 0,-2.23 -0.55,-2.23 -3.89,-2.23 v -1.55 c 1.73,0.05 4.28,0.16 5.62,0.16 1.3,0 3.89,-0.11 5.58,-0.16 v 1.55 c -2.58,0 -3.83,0 -3.88,1.5 v 9.51 c 0,4.28 0,5.83 -1.54,7.61 -0.71,0.86 -2.35,1.85 -5.24,1.85 -4.18,0 -6.37,-2.99 -7.22,-4.88 -0.7,4.33 -4.39,4.88 -6.62,4.88 -3.64,0 -5.98,-2.15 -7.38,-5.22 v 5.22 l -7.03,-0.55 v -1.55 c 3.49,0 3.89,-0.34 3.89,-2.78 z"
         inkscape:connector-curvature="0"
         style="fill:#ff0000;stroke-width:0;stroke-linecap:butt;stroke-linejoin:round" /><path
         id="path1166"
         d="m 590.69,345.99 -0.01,-0.04 -0.02,-0.05 -0.01,-0.05 -0.01,-0.04 -0.02,-0.05 -0.01,-0.06 -0.02,-0.05 -0.01,-0.05 -0.03,-0.11 -0.03,-0.11 -0.03,-0.12 -0.02,-0.11 -0.02,-0.05 -0.01,-0.05 -0.01,-0.05 -0.01,-0.05 -0.01,-0.05 -0.01,-0.04 -0.01,-0.05 -0.01,-0.04 -0.01,-0.03 v -0.04 l -0.01,-0.03 v -0.03 l -0.01,-0.02 v -0.02 -0.01 -0.01 -0.01 0 c 0,-0.77 0.62,-1.11 1.18,-1.11 0.63,0 1.18,0.45 1.37,0.76 0.17,0.32 0.45,1.42 0.62,2.16 0.17,0.66 0.55,2.26 0.76,3.14 0.21,0.77 0.43,1.53 0.6,2.33 0.37,1.44 0.45,1.7 1.45,3.14 0.99,1.39 2.63,3.2 5.24,3.2 2.01,0 2.04,-1.78 2.04,-2.44 0,-2.09 -1.48,-5.95 -2.04,-7.42 -0.39,-0.98 -0.54,-1.29 -0.54,-1.89 0,-1.84 1.55,-2.98 3.32,-2.98 3.48,0 5.01,4.79 5.01,5.33 0,0.45 -0.45,0.45 -0.54,0.45 -0.5,0 -0.54,-0.2 -0.67,-0.6 -0.8,-2.78 -2.3,-4.21 -3.69,-4.21 -0.74,0 -0.88,0.48 -0.88,1.21 0,0.8 0.17,1.25 0.8,2.83 0.42,1.08 1.86,4.77 1.86,6.72 0,3.39 -2.69,3.97 -4.53,3.97 -2.89,0 -4.85,-1.77 -5.89,-3.16 -0.25,2.39 -2.3,3.16 -3.74,3.16 -1.5,0 -2.3,-1.08 -2.75,-1.87 -0.76,-1.29 -1.25,-3.29 -1.25,-3.46 0,-0.45 0.49,-0.45 0.6,-0.45 0.48,0 0.51,0.11 0.76,1.05 0.52,2.06 1.19,3.76 2.55,3.76 0.91,0 1.14,-0.76 1.14,-1.7 0,-0.67 -0.31,-1.95 -0.56,-2.89 -0.24,-0.96 -0.58,-2.38 -0.77,-3.14 z"
         inkscape:connector-curvature="0"
         style="fill:#ff0000;stroke-width:0;stroke-linecap:butt;stroke-linejoin:round" /><path
         id="path1168"
         d="m 643.1,351.68 -0.4,-0.31 -0.38,-0.31 -0.36,-0.32 -0.33,-0.32 -0.32,-0.32 -0.3,-0.33 -0.28,-0.33 -0.26,-0.33 -0.24,-0.33 -0.23,-0.33 -0.21,-0.32 -0.19,-0.32 -0.18,-0.32 -0.17,-0.31 -0.15,-0.3 -0.14,-0.29 -0.12,-0.29 -0.11,-0.27 -0.1,-0.27 -0.09,-0.25 -0.08,-0.24 -0.07,-0.22 -0.06,-0.21 -0.05,-0.19 -0.04,-0.17 -0.04,-0.15 -0.03,-0.14 -0.02,-0.11 -0.01,-0.09 -0.02,-0.07 v -0.04 -0.02 c 0,-0.51 0.34,-0.51 0.83,-0.51 0.62,0 0.73,0 0.9,0.59 0.22,0.88 0.77,3.1 2.58,5.02 2.03,2.12 3.77,2.65 5.23,3.11 0.21,0.06 0.35,0.26 0.35,0.45 0,0.34 -0.21,0.41 -0.66,0.55 -5.01,1.61 -6.8,5.15 -7.53,8.22 -0.14,0.42 -0.39,0.42 -0.87,0.42 -0.49,0 -0.83,0 -0.83,-0.52 0,-0.08 0.34,-2.4 2.04,-4.81 0.82,-1.19 1.79,-2.16 2.94,-3 h -27.98 c -0.57,0 -1.39,0 -1.39,-0.83 0,-0.87 0.79,-0.87 1.39,-0.87 z"
         inkscape:connector-curvature="0"
         style="fill:#ff0000;stroke-width:0;stroke-linecap:butt;stroke-linejoin:round" /><path
         id="path1170"
         d="m 670.9,353.35 -0.17,0.2 -0.16,0.18 -0.16,0.18 -0.15,0.18 -0.14,0.16 -0.14,0.16 -0.13,0.15 -0.13,0.14 -0.12,0.14 -0.12,0.13 -0.11,0.13 -0.11,0.11 -0.11,0.12 -0.11,0.11 -0.1,0.11 -0.1,0.1 -0.2,0.19 -0.2,0.19 -0.19,0.17 -0.2,0.17 -0.21,0.16 -0.21,0.17 -0.11,0.08 -0.12,0.08 -0.11,0.09 -0.13,0.09 c -2.12,1.54 -4.34,2.12 -6.26,2.12 -4.33,0 -7.45,-3.69 -7.45,-7.87 h 0.96 c 0,3.35 2.72,5.96 5.93,5.96 3.25,0 5.46,-2.65 8.81,-6.68 v 0 c -1.39,-2.27 -4.42,-5.8 -8.67,-5.8 -3.6,0 -6.07,3.17 -6.07,6.52 h -0.96 c 0,-4.07 2.98,-7.83 7.34,-7.83 4.84,0 8.23,3.97 9.48,5.81 1.85,-2.16 2.41,-2.75 3.72,-3.69 2.13,-1.53 4.36,-2.12 6.28,-2.12 4.32,0 7.46,3.68 7.46,7.87 h -0.97 c 0,-3.34 -2.72,-5.97 -5.92,-5.97 -3.25,0 -5.49,2.66 -8.83,6.71 v 0 c 1.4,2.25 4.44,5.78 8.69,5.78 3.57,0 6.06,-3.17 6.06,-6.52 h 0.97 c 0,4.08 -3,7.83 -7.35,7.83 -4.84,0 -8.23,-3.97 -9.48,-5.81 z"
         inkscape:connector-curvature="0"
         style="fill:#ff0000;stroke-width:0;stroke-linecap:butt;stroke-linejoin:round" /><path
         id="path1172"
         d="m 727.01,438.15 -0.01,-0.04 -0.02,-0.05 -0.01,-0.05 -0.01,-0.04 -0.02,-0.05 -0.01,-0.06 -0.02,-0.05 -0.01,-0.05 -0.03,-0.11 -0.03,-0.11 -0.03,-0.12 -0.02,-0.11 -0.02,-0.05 -0.01,-0.05 -0.01,-0.05 -0.01,-0.05 -0.01,-0.05 -0.01,-0.04 -0.01,-0.05 -0.01,-0.04 -0.01,-0.03 v -0.04 l -0.01,-0.03 v -0.03 l -0.01,-0.02 v -0.02 -0.01 -0.01 -0.01 0 c 0,-0.77 0.62,-1.11 1.18,-1.11 0.63,0 1.18,0.45 1.37,0.76 0.17,0.32 0.45,1.42 0.62,2.16 0.17,0.66 0.55,2.26 0.76,3.14 0.21,0.77 0.43,1.53 0.6,2.33 0.37,1.44 0.45,1.7 1.45,3.14 0.99,1.39 2.63,3.2 5.24,3.2 2.01,0 2.04,-1.78 2.04,-2.44 0,-2.09 -1.48,-5.95 -2.04,-7.42 -0.39,-0.98 -0.54,-1.29 -0.54,-1.89 0,-1.84 1.55,-2.98 3.32,-2.98 3.48,0 5.01,4.79 5.01,5.33 0,0.45 -0.45,0.45 -0.54,0.45 -0.5,0 -0.54,-0.2 -0.67,-0.6 -0.8,-2.78 -2.3,-4.21 -3.69,-4.21 -0.74,0 -0.88,0.48 -0.88,1.21 0,0.8 0.17,1.25 0.8,2.83 0.42,1.08 1.86,4.77 1.86,6.72 0,3.39 -2.69,3.97 -4.53,3.97 -2.89,0 -4.85,-1.77 -5.89,-3.16 -0.25,2.39 -2.3,3.16 -3.74,3.16 -1.5,0 -2.3,-1.08 -2.75,-1.87 -0.76,-1.29 -1.25,-3.29 -1.25,-3.46 0,-0.45 0.49,-0.45 0.6,-0.45 0.48,0 0.51,0.11 0.76,1.05 0.52,2.06 1.19,3.76 2.55,3.76 0.91,0 1.14,-0.76 1.14,-1.7 0,-0.67 -0.31,-1.95 -0.56,-2.89 -0.24,-0.96 -0.58,-2.38 -0.77,-3.14 z"
         inkscape:connector-curvature="0"
         style="fill:#ff0000;stroke-width:0;stroke-linecap:butt;stroke-linejoin:round" /><path
         id="path1174"
         d="m 762.2,351.33 6.03,15.94 h -1.25 c -1.95,-5.18 -7.23,-8.57 -12.95,-10.07 -1.05,-0.25 -5.94,-1.54 -15.5,-1.54 h -30.05 l 25.36,29.75 c 0.36,0.39 0.45,0.54 0.45,0.79 0,0.1 0,0.25 -0.34,0.75 l -23.22,31.74 h 27.3 c 6.69,0 11.22,-0.71 11.65,-0.8 2.71,-0.41 7.04,-1.25 10.97,-3.73 1.25,-0.8 4.63,-3.05 6.33,-7.08 h 1.25 l -6.03,14 h -58.89 c -1.14,0 -1.21,-0.05 -1.34,-0.35 -0.05,-0.15 -0.05,-1.09 -0.05,-1.65 l 26.34,-36.06 -25.79,-30.25 c -0.5,-0.6 -0.5,-0.85 -0.5,-0.89 0,-0.55 0.43,-0.55 1.34,-0.55 z"
         inkscape:connector-curvature="0"
         style="fill:#ff0000;stroke-width:0;stroke-linecap:butt;stroke-linejoin:round" /><path
         id="path1176"
         d="m 709.67,336.94 v 0 0.01 0 0.01 h 0.01 v 0.01 0 0.01 l 0.01,0.01 v 0.01 0.01 l 0.01,0.02 v 0.02 l 0.01,0.02 v 0.02 l 0.01,0.02 0.01,0.02 v 0.03 l 0.01,0.02 0.01,0.05 0.01,0.04 0.01,0.03 v 0.02 l 0.01,0.02 v 0.02 l 0.01,0.02 v 0.02 l 0.01,0.02 v 0.01 0.01 0.01 0 0.01 h 0.01 v 0.01 0 0.01 0 0 0.01 0 c 0,0.19 -0.14,0.5 -0.56,0.5 -0.69,0 -3.58,-0.28 -4.46,-0.36 -0.28,-0.03 -0.76,-0.06 -0.76,-0.8 0,-0.48 0.48,-0.48 0.9,-0.48 1.67,0 1.67,-0.25 1.67,-0.53 0,-0.24 -0.07,-0.46 -0.13,-0.77 l -4.93,-19.72 c -0.17,-0.62 -0.17,-0.69 -0.17,-0.76 0,-0.52 0.42,-1.11 1.19,-1.11 0.94,0 1.39,0.68 1.61,1.45 0.06,0.14 1.56,6.28 1.7,6.77 2.47,-0.25 4.45,-1.05 4.45,-2.86 0,-0.18 0,-0.35 -0.06,-0.69 -0.14,-0.53 -0.14,-0.7 -0.14,-1.09 0,-2.47 2.02,-3.58 3.69,-3.58 3.39,0 4.44,5.29 4.44,5.33 0,0.45 -0.46,0.45 -0.57,0.45 -0.48,0 -0.53,-0.17 -0.7,-0.85 -0.41,-1.5 -1.36,-3.96 -3.06,-3.96 -0.94,0 -1.22,0.87 -1.22,1.81 0,0.59 0,0.65 0.2,1.56 0.05,0.11 0.19,0.7 0.19,1.09 0,3.1 -4.19,3.58 -5.66,3.69 1.02,0.63 2.3,1.78 2.89,2.3 1.78,1.67 3.53,3.31 5.47,3.31 0.43,0 0.88,-0.11 1.16,-0.45 -1.5,-0.25 -1.81,-1.42 -1.81,-1.95 0,-0.77 0.59,-1.29 1.39,-1.29 0.95,0 1.98,0.77 1.98,2.22 0,1.16 -0.83,2.44 -2.67,2.44 -1.99,0 -3.8,-1.42 -5.58,-3.06 -1.47,-1.39 -2.61,-2.47 -4.04,-3.06 z"
         inkscape:connector-curvature="0"
         style="fill:#ff0000;stroke-width:0;stroke-linecap:butt;stroke-linejoin:round" /><path
         id="path1178"
         d="m 747.48,325.5 h 0.05 0.05 0.06 l 0.05,0.01 h 0.11 0.05 l 0.06,0.01 h 0.05 l 0.06,0.01 0.05,0.01 0.06,0.01 0.05,0.01 0.05,0.02 0.05,0.01 0.05,0.02 0.05,0.03 0.05,0.02 0.04,0.03 0.05,0.03 0.04,0.03 0.04,0.04 0.03,0.04 0.02,0.02 0.01,0.02 0.02,0.03 0.01,0.02 0.02,0.03 0.01,0.02 0.01,0.03 0.01,0.03 0.01,0.03 0.01,0.03 0.01,0.03 0.01,0.04 v 0.03 l 0.01,0.03 v 0.04 0.04 l 0.01,0.04 v 0.04 c 0,0.84 -0.83,0.84 -1.28,0.84 h -23.07 c -0.45,0 -1.29,0 -1.29,-0.84 0,-0.88 0.79,-0.88 1.32,-0.88 z"
         inkscape:connector-curvature="0"
         style="fill:#ff0000;stroke-width:0;stroke-linecap:butt;stroke-linejoin:round" /><path
         id="path1180"
         d="m 747.52,317.85 h 0.04 0.05 0.04 0.05 0.05 0.05 l 0.05,0.01 h 0.06 l 0.05,0.01 h 0.05 l 0.06,0.01 0.05,0.01 0.05,0.01 0.06,0.02 0.05,0.01 0.05,0.02 0.05,0.02 0.04,0.03 0.05,0.02 0.04,0.03 0.04,0.03 0.04,0.04 0.04,0.04 0.01,0.02 0.02,0.02 0.02,0.02 0.01,0.02 0.01,0.03 0.02,0.02 0.01,0.03 0.01,0.03 0.01,0.02 0.01,0.03 0.01,0.03 0.01,0.03 v 0.04 l 0.01,0.03 v 0.03 0.04 l 0.01,0.04 v 0.04 c 0,0.87 -0.8,0.87 -1.32,0.87 h -23 c -0.53,0 -1.32,0 -1.32,-0.87 0,-0.83 0.84,-0.83 1.29,-0.83 z"
         inkscape:connector-curvature="0"
         style="fill:#ff0000;stroke-width:0;stroke-linecap:butt;stroke-linejoin:round" /><path
         id="path1182"
         d="m 762.99,335.96 v 0.04 0.04 0.05 0.04 0.03 0.04 l -0.01,0.04 v 0.03 0.04 0.03 0.03 0.03 l -0.01,0.03 v 0.03 0.03 l -0.01,0.02 v 0.03 l -0.01,0.02 v 0.03 l -0.01,0.02 -0.01,0.04 -0.01,0.04 -0.02,0.03 -0.02,0.03 -0.02,0.03 -0.03,0.03 -0.02,0.02 -0.03,0.02 -0.04,0.02 -0.03,0.01 -0.05,0.01 -0.04,0.01 -0.02,0.01 h -0.03 l -0.02,0.01 h -0.03 -0.03 l -0.03,0.01 h -0.03 -0.03 -0.03 l -0.03,0.01 h -0.04 -0.03 -0.04 -0.04 -0.03 -0.04 -0.05 -0.04 -0.04 -0.05 c -2.23,-2.2 -5.39,-2.23 -6.83,-2.23 v -1.25 c 0.85,0 3.14,0 5.05,0.97 v -17.77 c 0,-1.16 0,-1.61 -3.48,-1.61 h -1.32 v -1.25 c 0.63,0.03 4.91,0.14 6.21,0.14 1.08,0 5.46,-0.11 6.23,-0.14 v 1.25 h -1.33 c -3.48,0 -3.48,0.45 -3.48,1.61 z"
         inkscape:connector-curvature="0"
         style="fill:#ff0000;stroke-width:0;stroke-linecap:butt;stroke-linejoin:round" /><path
         id="path1184"
         d="m 812.64,439.29 v 0.05 0.06 0.05 0.05 0.05 0.05 0.04 0.05 0.04 0.04 0.04 l -0.01,0.04 v 0.04 0.03 0.04 l -0.01,0.03 v 0.07 l -0.01,0.06 -0.02,0.05 -0.01,0.05 -0.02,0.05 -0.01,0.04 -0.03,0.04 -0.02,0.03 -0.03,0.03 -0.03,0.03 -0.04,0.03 -0.04,0.02 -0.04,0.02 -0.03,0.01 h -0.02 l -0.03,0.01 -0.02,0.01 h -0.03 l -0.03,0.01 -0.03,0.01 h -0.03 -0.04 l -0.03,0.01 h -0.04 -0.03 l -0.04,0.01 h -0.04 -0.05 -0.04 -0.04 -0.05 l -0.05,0.01 h -0.05 -0.05 -0.05 c -3.09,-3.19 -7.47,-3.19 -9.06,-3.19 v -1.55 c 1,0 3.94,0 6.51,1.3 v -25.81 c 0,-1.8 -0.14,-2.39 -4.62,-2.39 h -1.6 v -1.55 c 1.75,0.15 6.08,0.15 8.07,0.15 2,0 6.32,0 8.08,-0.15 v 1.55 h -1.6 c -4.48,0 -4.64,0.54 -4.64,2.39 z"
         inkscape:connector-curvature="0"
         style="fill:#ff0000;stroke-width:0;stroke-linecap:butt;stroke-linejoin:round" /><polyline
         id="polyline1186"
         points="786,385 835.92,385 835.92,387.04 786,387.04 "
         style="fill:#ff0000;fill-rule:nonzero;stroke-width:0;stroke-linecap:butt;stroke-linejoin:round" /><path
         id="path1188"
         d="m 799.82,373.63 v 0.01 0 0.01 0.01 l -0.01,0.01 v 0.01 0.02 0.02 0.02 l -0.01,0.02 v 0.02 l -0.01,0.02 -0.01,0.03 -0.01,0.02 -0.01,0.02 -0.01,0.03 -0.01,0.02 -0.02,0.03 -0.02,0.02 -0.02,0.03 -0.02,0.02 -0.01,0.01 -0.01,0.01 -0.02,0.01 -0.01,0.01 -0.02,0.01 -0.01,0.01 -0.02,0.01 -0.01,0.01 -0.02,0.01 -0.02,0.01 -0.02,0.01 h -0.02 l -0.02,0.01 -0.02,0.01 h -0.02 l -0.02,0.01 h -0.03 l -0.02,0.01 h -0.03 -0.02 l -0.03,0.01 h -0.03 -0.02 -0.03 c -1.16,0 -4.78,-0.41 -6.08,-0.5 -0.41,-0.05 -0.95,-0.09 -0.95,-1 0,-0.59 0.45,-0.59 1.2,-0.59 2.39,0 2.48,-0.35 2.48,-0.85 l -0.15,-1 -7.22,-28.7 c -0.21,-0.69 -0.21,-0.8 -0.21,-1.09 0,-1.15 1,-1.4 1.46,-1.4 0.64,0 1.39,0.46 1.69,1.05 0.25,0.45 2.5,9.66 2.79,10.91 1.69,-0.14 5.78,-0.94 5.78,-4.24 0,-0.34 0,-0.54 -0.15,-1.04 -0.1,-0.6 -0.21,-1.19 -0.21,-1.74 0,-2.95 2,-4.94 4.6,-4.94 1.48,0 2.82,0.8 3.94,2.65 1.23,2.18 1.78,4.93 1.78,5.03 0,0.5 -0.44,0.5 -0.6,0.5 -0.5,0 -0.55,-0.21 -0.7,-0.91 -0.98,-3.62 -2.14,-6.17 -4.33,-6.17 -0.94,0 -1.59,0.55 -1.59,2.34 0,0.85 0.2,1.99 0.4,2.78 0.19,0.86 0.19,1.05 0.19,1.55 0,3.25 -3.14,4.69 -7.37,5.23 1.54,0.91 3.14,2.5 4.29,3.69 2.39,2.64 4.68,4.78 7.13,4.78 0.3,0 0.34,0 0.43,-0.04 0.62,-0.1 0.66,-0.1 1.05,-0.39 0.11,-0.07 0.11,-0.11 0.2,-0.21 -2.38,-0.15 -2.84,-2.09 -2.84,-2.68 0,-0.8 0.55,-1.75 1.89,-1.75 1.3,0 2.75,1.09 2.75,3.03 0,1.5 -1.15,3.14 -3.39,3.14 -1.39,0 -3.69,-0.39 -7.28,-4.38 -1.69,-1.89 -3.63,-3.89 -5.51,-4.64 z"
         inkscape:connector-curvature="0"
         style="fill:#ff0000;stroke-width:0;stroke-linecap:butt;stroke-linejoin:round" /><path
         id="path1190"
         d="m 830.59,360.34 h -1.18 c -0.1,-0.76 -0.46,-2.82 -0.91,-3.17 -0.27,-0.2 -2.95,-0.2 -3.44,-0.2 h -6.42 c 3.66,3.23 4.88,4.2 6.97,5.84 2.58,2.07 4.98,4.22 4.98,7.53 0,4.22 -3.68,6.8 -8.15,6.8 -4.32,0 -7.25,-3.03 -7.25,-6.23 0,-1.79 1.5,-1.96 1.86,-1.96 0.83,0 1.84,0.6 1.84,1.85 0,0.62 -0.25,1.84 -2.06,1.84 1.08,2.47 3.45,3.24 5.09,3.24 3.49,0 5.3,-2.71 5.3,-5.54 0,-3.03 -2.16,-5.43 -3.28,-6.68 l -8.39,-8.3 c -0.36,-0.31 -0.36,-0.39 -0.36,-1.36 h 14.36 z"
         inkscape:connector-curvature="0"
         style="fill:#ff0000;stroke-width:0;stroke-linecap:butt;stroke-linejoin:round" /></g>  </g>
</svg>
